<svg width="210" height="42" viewBox="0 0 210 42" fill="none" xmlns="http://www.w3.org/2000/svg">
<g clip-path="url(#clip0_14144_13394)">
<path d="M 43.8 11.6 C 42 11.6 40.6 13.1 40.6 14.8 V 28.3 H 43.8 V 14.8 H 51.4 V 11.6 H 43.8 Z" fill="white"/>
<path d="M 70.7 20 V 14.8 C 70.7 13.1 69.3 11.6 67.5 11.6 H 57.1 C 55.3 11.6 53.9 13.1 53.9 14.8 V 25.1 C 53.9 26.8 55.3 28.3 57.1 28.3 H 67.5 C 69.3 28.3 70.7 26.8 70.7 25.1 V 20 V 20 Z M 67.5 20 V 25.1 H 57.1 V 14.8 H 67.5 V 20 V 20 Z" fill="white"/>
<path d="M 77.1 11.6 C 75.4 11.6 73.9 13.1 73.9 14.8 V 25.1 C 73.9 26.8 75.4 28.3 77.1 28.3 L 88.5 28.1 V 25.1 H 77.1 V 14.8 H 88.5 V 11.8 L 77.1 11.6 Z" fill="white"/>
<path d="M 106.9 11.6 H 102.6 L 96.2 18.4 H 94.9 V 11.6 H 91.7 V 20 V 28.3 H 94.9 V 21.5 H 96.5 H 96.8 L 103.4 28.3 H 107.8 L 99.3 19.6 L 106.9 11.6 Z" fill="white"/>
<path d="M 111.8 25.1 V 21.5 L 125.4 21.4 V 14.8 C 125.4 13.1 123.9 11.6 122.2 11.6 H 111.8 C 110 11.6 108.5 13.1 108.5 14.8 V 25.1 C 108.5 26.8 110 28.3 111.8 28.3 L 125.4 28.1 V 25.1 H 111.8 V 25.1 Z M 111.8 14.8 H 122.2 V 18.4 H 111.8 V 14.8 Z" fill="white"/>
<path d="M 133.5 6.8 H 132.2 L 130.3 9.2 V 11.6 H 127.8 V 14.8 L 130.3 14.8 V 25.1 C 130.3 26.8 131.7 28.3 133.5 28.3 L 138.7 28.1 V 25.1 H 133.5 V 14.7 L 139.1 14.7 V 11.6 H 133.5 V 6.8 Z" fill="white"/>
<path d="M 156.1 21.5 C 156.1 19.8 154.7 18.4 152.9 18.4 H 144.8 V 14.8 H 156.1 V 11.8 L 144.8 11.6 C 143 11.6 141.6 13.1 141.6 14.8 V 18.4 C 141.6 20.1 143 21.5 144.8 21.5 H 152.9 V 25.1 H 141.6 V 28.1 L 152.9 28.3 C 154.7 28.3 156.1 26.8 156.1 25.1 V 21.5 Z" fill="white"/>
<path d="M 173 11.6 H 162.6 C 160.8 11.6 159.3 13.1 159.3 14.8 V 25.1 C 159.3 26.8 160.8 28.3 162.6 28.3 L 176.2 28.1 V 25.1 H 162.6 V 21.5 L 176.2 21.4 V 14.8 C 176.2 13.1 174.7 11.6 173 11.6 Z M 173 18.4 H 162.6 V 14.8 H 173 V 18.4 Z" fill="white"/>
<path d="M 193 11.6 L 179.4 11.8 V 14.8 H 193 V 18.4 L 179.4 18.5 V 25.1 C 179.4 26.8 180.8 28.3 182.6 28.3 H 193 C 194.8 28.3 196.2 26.8 196.2 25.1 V 14.8 C 196.2 13.1 194.8 11.6 193 11.6 Z M 193 25.1 H 182.6 V 21.5 H 193 V 25.1 Z" fill="white"/>
<path d="M 204.3 14.7 L 210 14.7 V 11.6 H 204.3 V 6.8 H 203.1 L 201.1 9.2 V 11.6 H 198.7 V 14.8 L 201.1 14.8 V 25.1 C 201.1 26.8 202.6 28.3 204.3 28.3 L 209.5 28.1 V 25.1 H 204.3 V 14.7 Z" fill="white"/>
<path d="M 32.1 0.8 L 26.8 0 C 26.7 0 26.5 0 26.5 0.1 L 24.2 3 C 24.1 3.2 24 3.4 24.1 3.6 C 24.1 3.8 24 4 23.7 3.9 L 21.9 3.5 C 21.6 3.5 21.3 3.6 21.1 3.8 L 13.9 13 C 13.7 13.2 13.5 13.3 13.3 13.2 L 10.6 11.9 C 10.3 11.8 10 11.9 9.8 12 L 8.4 13 C 8.2 13.1 7.9 13.1 7.6 13 L 7 12.7 C 6.5 12.4 6 12.7 5.9 13.2 L 5.4 15.3 C 5.3 15.8 5.5 16.4 5.9 16.6 L 7 17.3 L 10.4 19.3 L 12 20.3 C 12.5 20.6 13.1 20.6 13.5 20.2 L 16.2 17.8 C 16.4 17.6 16.8 17.6 17 17.7 L 17.9 18.1 C 18.1 18.3 18.5 18.2 18.7 18 L 20.1 16.7 C 20.3 16.5 20.7 16.5 20.9 16.6 L 23 17.5 C 23.3 17.7 23.7 17.6 23.9 17.3 L 24.9 16.1 L 32.2 6.9 C 32.5 6.4 32.3 5.8 31.7 5.7 L 30.1 5.3 C 29.8 5.3 29.6 4.9 29.8 4.6 L 32.4 1.5 C 32.6 1.2 32.4 0.8 32.1 0.8 V 0.8 Z" fill="#fc0303"/>
<path d="M 8 19.3 C 7.9 19.2 7.7 19.4 7.8 19.5 L 8.6 21.5 C 8.6 21.7 8.6 21.8 8.6 22 L 7.9 24.6 C 7.9 24.8 7.9 25 8.1 25.1 L 10 26.6 C 10.2 26.7 10.4 26.7 10.6 26.6 L 12.7 24.8 C 12.8 24.7 12.9 24.6 13.1 24.6 L 15.4 24.4 C 15.6 24.4 15.6 24.1 15.5 24 L 8 19.3 V 19.3 Z" fill="#fc0303"/>
<path d="M 7.3 26.1 C 7.2 26 7 26 6.9 26 L 5.2 26.8 C 5.1 26.9 5.1 26.9 5 27 L 1.5 35.6 C 1.5 35.6 1.5 35.6 1.5 35.6 C 1.5 35.7 1.6 35.7 1.6 35.7 L 2.4 35.4 C 2.5 35.4 2.5 35.4 2.5 35.4 C 2.5 35.4 2.6 35.5 2.5 35.5 L 0 39.6 C 0 39.7 0.1 39.8 0.1 39.7 L 9.2 30.7 C 9.3 30.6 9.4 30.5 9.4 30.4 L 9.5 28.1 C 9.5 27.9 9.5 27.8 9.4 27.7 L 7.3 26.1 V 26.1 Z" fill="#fc0303"/>
<path d="M 95.4 40.4 C 95.4 40.2 95.4 40.1 95.3 39.8 C 95.2 40 95 40.2 94.7 40.3 C 94.5 40.4 94.2 40.4 93.9 40.4 C 93.6 40.4 93.2 40.3 93 40.1 C 92.8 39.9 92.6 39.6 92.6 39.3 C 92.6 38.9 92.8 38.6 93.1 38.4 C 93.5 38.1 93.9 38 94.5 38 H 95.3 V 37.6 C 95.3 37.3 95.2 37 95.1 36.9 C 94.9 36.7 94.6 36.6 94.3 36.6 C 94 36.6 93.7 36.7 93.5 36.9 C 93.3 37 93.2 37.2 93.2 37.4 H 92.7 C 92.7 37.1 92.9 36.8 93.2 36.6 C 93.5 36.4 93.9 36.3 94.3 36.3 C 94.7 36.3 95.1 36.4 95.4 36.6 C 95.6 36.8 95.8 37.1 95.8 37.5 V 39.4 C 95.8 39.8 95.8 40.1 95.9 40.3 V 40.4 H 95.4 Z M 94 40 C 94.3 40 94.6 40 94.8 39.8 C 95.1 39.7 95.2 39.5 95.3 39.3 V 38.4 H 94.5 C 94.1 38.4 93.7 38.4 93.5 38.6 C 93.2 38.8 93.1 39 93.1 39.3 C 93.1 39.5 93.2 39.7 93.3 39.8 C 93.5 40 93.7 40 94 40 Z" fill="white"/>
<path d="M 177.6 40.1 C 177.9 40.1 178.2 40 178.4 39.8 C 178.6 39.6 178.7 39.4 178.8 39.1 H 179.2 C 179.2 39.4 179.1 39.6 179 39.8 C 178.8 40 178.6 40.2 178.4 40.3 C 178.1 40.4 177.9 40.4 177.6 40.4 C 177.1 40.4 176.7 40.3 176.3 39.9 C 176 39.5 175.9 39 175.9 38.4 V 38.3 C 175.9 37.9 175.9 37.5 176.1 37.2 C 176.2 36.9 176.4 36.7 176.7 36.5 C 177 36.3 177.3 36.3 177.6 36.3 C 178.1 36.3 178.4 36.4 178.7 36.6 C 179 36.9 179.2 37.3 179.2 37.7 H 178.8 C 178.7 37.4 178.6 37.1 178.4 36.9 C 178.2 36.7 177.9 36.6 177.6 36.6 C 177.2 36.6 176.9 36.8 176.7 37.1 C 176.4 37.4 176.3 37.8 176.3 38.3 V 38.4 C 176.3 38.9 176.4 39.3 176.7 39.6 C 176.9 39.9 177.2 40.1 177.6 40.1 Z" fill="white"/>
<path d="M 179.8 38.3 C 179.8 37.9 179.9 37.6 180.1 37.2 C 180.2 36.9 180.4 36.7 180.7 36.5 C 181 36.3 181.3 36.3 181.7 36.3 C 182.2 36.3 182.7 36.4 183 36.8 C 183.3 37.2 183.5 37.7 183.5 38.3 V 38.4 C 183.5 38.8 183.4 39.2 183.3 39.5 C 183.1 39.8 182.9 40 182.6 40.2 C 182.4 40.4 182 40.4 181.7 40.4 C 181.1 40.4 180.7 40.3 180.4 39.9 C 180 39.5 179.8 39 179.8 38.4 V 38.3 H 179.8 Z M 180.3 38.4 C 180.3 38.9 180.4 39.3 180.7 39.6 C 180.9 39.9 181.3 40.1 181.7 40.1 C 182.1 40.1 182.4 39.9 182.7 39.6 C 182.9 39.3 183.1 38.9 183.1 38.4 V 38.3 C 183.1 38 183 37.7 182.9 37.4 C 182.8 37.2 182.6 37 182.4 36.8 C 182.2 36.7 181.9 36.6 181.7 36.6 C 181.3 36.6 180.9 36.8 180.7 37.1 C 180.4 37.4 180.3 37.8 180.3 38.3 V 38.4 Z" fill="white"/>
<path d="M 184.8 36.3 L 184.9 37 C 185 36.7 185.2 36.6 185.4 36.4 C 185.7 36.3 185.9 36.3 186.2 36.3 C 186.8 36.3 187.2 36.5 187.4 37 C 187.6 36.8 187.8 36.6 188 36.5 C 188.2 36.3 188.5 36.3 188.8 36.3 C 189.7 36.3 190.1 36.7 190.2 37.7 V 40.4 H 189.7 V 37.7 C 189.7 37.3 189.6 37.1 189.5 36.9 C 189.3 36.7 189.1 36.6 188.7 36.6 C 188.4 36.7 188.1 36.8 187.9 37 C 187.7 37.2 187.5 37.4 187.5 37.7 V 40.4 H 187.1 V 37.7 C 187.1 37.3 187 37.1 186.8 36.9 C 186.6 36.7 186.4 36.6 186.1 36.6 C 185.8 36.6 185.5 36.7 185.3 36.9 C 185.1 37 185 37.3 184.9 37.6 V 40.4 H 184.4 V 36.3 H 184.9 L 184.8 36.3 Z" fill="white"/>
<path d="M 194.6 38.4 C 194.6 39 194.5 39.5 194.2 39.9 C 193.9 40.3 193.5 40.4 193 40.4 C 192.5 40.4 192 40.2 191.7 39.9 V 41.9 H 191.3 V 36.3 H 191.7 L 191.7 36.9 C 192 36.5 192.5 36.3 193 36.3 C 193.5 36.3 193.9 36.4 194.2 36.8 C 194.5 37.2 194.6 37.7 194.6 38.3 V 38.4 Z M 194.1 38.3 C 194.1 37.8 194 37.4 193.8 37.1 C 193.6 36.8 193.3 36.6 192.9 36.6 C 192.6 36.6 192.4 36.7 192.2 36.8 C 192 37 191.9 37.2 191.7 37.4 V 39.4 C 191.9 39.6 192 39.8 192.2 39.9 C 192.4 40 192.7 40.1 192.9 40.1 C 193.3 40.1 193.6 39.9 193.8 39.6 C 194 39.3 194.1 38.9 194.1 38.3 V 38.3 Z" fill="white"/>
<path d="M 198.2 40.4 C 198.1 40.2 198.1 40.1 198.1 39.8 C 197.9 40 197.7 40.2 197.5 40.3 C 197.2 40.4 197 40.4 196.7 40.4 C 196.3 40.4 196 40.3 195.7 40.1 C 195.5 39.9 195.4 39.6 195.4 39.3 C 195.4 38.9 195.6 38.6 195.9 38.4 C 196.2 38.1 196.7 38 197.3 38 H 198.1 V 37.6 C 198.1 37.3 198 37 197.8 36.9 C 197.6 36.7 197.4 36.6 197 36.6 C 196.7 36.6 196.5 36.7 196.2 36.9 C 196 37 195.9 37.2 195.9 37.4 H 195.5 C 195.5 37.1 195.6 36.8 195.9 36.6 C 196.2 36.4 196.6 36.3 197.1 36.3 C 197.5 36.3 197.9 36.4 198.1 36.6 C 198.4 36.8 198.5 37.1 198.5 37.5 V 39.4 C 198.5 39.8 198.6 40.1 198.7 40.3 V 40.4 H 198.2 H 198.2 Z M 196.8 40 C 197.1 40 197.3 40 197.6 39.8 C 197.8 39.7 198 39.5 198.1 39.3 V 38.4 H 197.3 C 196.8 38.4 196.5 38.4 196.2 38.6 C 196 38.8 195.8 39 195.8 39.3 C 195.8 39.5 195.9 39.7 196.1 39.8 C 196.3 40 196.5 40 196.8 40 Z" fill="white"/>
<path d="M 200.2 36.3 L 200.2 37 C 200.3 36.8 200.5 36.6 200.8 36.5 C 201 36.3 201.3 36.3 201.5 36.3 C 202 36.3 202.3 36.4 202.5 36.6 C 202.7 36.9 202.8 37.2 202.8 37.7 V 40.4 H 202.4 V 37.7 C 202.4 37.4 202.3 37.1 202.2 36.9 C 202 36.7 201.8 36.6 201.4 36.6 C 201.1 36.6 200.9 36.7 200.7 36.9 C 200.5 37.1 200.3 37.3 200.2 37.6 V 40.4 H 199.8 V 36.3 H 200.2 H 200.2 Z" fill="white"/>
<path d="M 205.3 39.7 L 206.5 36.3 H 207 L 205.2 41.1 L 205.1 41.3 C 204.9 41.7 204.6 42 204.1 42 C 204 42 203.9 42 203.8 41.9 V 41.6 L 204 41.6 C 204.2 41.6 204.4 41.5 204.5 41.4 C 204.7 41.3 204.8 41.1 204.9 40.9 L 205.1 40.3 L 203.5 36.3 H 204 L 205.3 39.7 V 39.7 Z" fill="white"/>
<path d="M 108 40.6 V 35.3 H 108.5 V 40.6 H 108 Z" fill="white"/>
<path d="M 113.2 40.7 C 112.3 40.7 111.7 40.5 111.2 40 C 110.8 39.6 110.6 38.9 110.6 38 C 110.6 37.4 110.7 36.9 110.9 36.5 C 111.1 36.1 111.4 35.8 111.8 35.6 C 112.2 35.3 112.7 35.2 113.3 35.2 C 113.6 35.2 114 35.3 114.3 35.4 C 114.5 35.4 114.8 35.6 115 35.7 C 115.2 35.9 115.4 36.1 115.5 36.3 C 115.6 36.5 115.6 36.8 115.6 37.1 H 115.1 C 115.1 36.9 115 36.6 114.9 36.5 C 114.9 36.3 114.7 36.1 114.6 36 C 114.4 35.9 114.2 35.8 114 35.8 C 113.8 35.7 113.5 35.7 113.3 35.7 C 112.9 35.7 112.6 35.7 112.4 35.8 C 112.1 35.9 111.9 36 111.7 36.2 C 111.5 36.4 111.4 36.6 111.3 36.9 C 111.2 37.2 111.1 37.5 111.1 37.9 V 38 C 111.1 38.6 111.2 39 111.4 39.3 C 111.5 39.6 111.8 39.8 112.1 40 C 112.4 40.1 112.8 40.2 113.2 40.2 C 113.6 40.2 114 40.1 114.3 40 C 114.6 39.9 114.8 39.7 114.9 39.4 C 115 39.2 115.1 38.8 115.1 38.4 V 38.3 H 113.1 V 37.9 H 115.6 V 40.6 H 115.2 L 115.1 39.9 C 115 40 114.8 40.2 114.6 40.3 C 114.4 40.4 114.2 40.5 114 40.6 C 113.7 40.6 113.5 40.7 113.2 40.7 L 113.2 40.7 Z" fill="white"/>
<path d="M 118.2 40.6 V 35.3 H 118.8 V 40.6 H 118.2 Z" fill="white"/>
<path d="M 122.7 40.6 V 35.9 H 120.8 V 35.3 H 125.2 V 35.9 H 123.4 V 40.6 H 122.7 Z" fill="white"/>
<path d="M 126.2 40.6 L 128.3 35.3 H 129.3 L 131.5 40.6 H 130.6 L 130.1 39.3 H 127.5 L 127 40.6 H 126.2 Z M 127.8 38.7 H 129.8 L 129.2 37.1 C 129.2 37 129.2 37 129.1 36.9 C 129.1 36.8 129.1 36.7 129 36.6 C 129 36.5 129 36.4 128.9 36.3 C 128.9 36.2 128.9 36.1 128.8 36 H 128.8 C 128.7 36.1 128.7 36.2 128.7 36.4 C 128.6 36.5 128.6 36.6 128.5 36.8 C 128.5 36.9 128.4 37 128.4 37.1 L 127.8 38.7 V 38.7 Z" fill="white"/>
<path d="M 133.3 40.6 V 35.3 H 134.2 V 39.8 H 136.9 V 40.6 H 133.3 Z" fill="white"/>
<path d="M 138.8 40.6 V 35.3 H 139.8 V 37.5 H 142.3 V 35.3 H 143.3 V 40.6 H 142.3 V 38.3 H 139.8 V 40.6 H 138.8 Z" fill="white"/>
<path d="M 148 40.7 C 147.4 40.7 147 40.6 146.5 40.4 C 146.1 40.2 145.8 39.9 145.6 39.5 C 145.4 39.1 145.3 38.6 145.3 38 C 145.3 37.4 145.4 36.8 145.6 36.4 C 145.8 36 146.1 35.7 146.5 35.5 C 147 35.3 147.4 35.2 148 35.2 C 148.6 35.2 149 35.3 149.5 35.5 C 149.9 35.7 150.2 36 150.4 36.4 C 150.6 36.8 150.7 37.3 150.7 38 C 150.7 38.6 150.6 39.1 150.4 39.5 C 150.2 39.9 149.9 40.2 149.5 40.4 C 149 40.6 148.6 40.7 148 40.7 Z M 148 39.8 C 148.3 39.8 148.5 39.7 148.7 39.7 C 148.9 39.6 149 39.5 149.2 39.3 C 149.3 39.2 149.4 39 149.5 38.8 C 149.6 38.6 149.6 38.3 149.6 38.1 V 37.9 C 149.6 37.6 149.6 37.3 149.5 37.1 C 149.4 36.9 149.3 36.7 149.2 36.6 C 149 36.4 148.9 36.3 148.7 36.2 C 148.5 36.2 148.3 36.1 148 36.1 C 147.7 36.1 147.5 36.2 147.3 36.2 C 147.1 36.3 147 36.4 146.8 36.6 C 146.7 36.7 146.6 36.9 146.5 37.1 C 146.5 37.3 146.4 37.6 146.4 37.9 V 38.1 C 146.4 38.3 146.5 38.6 146.5 38.8 C 146.6 39 146.7 39.2 146.8 39.3 C 147 39.5 147.1 39.6 147.3 39.7 C 147.5 39.7 147.7 39.8 148 39.8 Z" fill="white"/>
<path d="M 155.1 40.7 C 154.6 40.7 154.2 40.6 153.8 40.4 C 153.5 40.3 153.2 40.1 153 39.7 C 152.8 39.4 152.7 39.1 152.7 38.6 V 35.3 H 153.9 V 38.6 C 153.9 38.9 154 39.2 154.2 39.4 C 154.4 39.6 154.7 39.7 155.1 39.7 C 155.4 39.7 155.7 39.6 155.9 39.4 C 156.1 39.2 156.2 38.9 156.2 38.6 V 35.3 H 157.5 V 38.6 C 157.5 39.1 157.4 39.4 157.2 39.7 C 157 40.1 156.7 40.3 156.4 40.4 C 156 40.6 155.6 40.7 155.1 40.7 Z" fill="white"/>
<path d="M 161.9 40.7 C 161.6 40.7 161.2 40.6 160.9 40.6 C 160.7 40.5 160.4 40.4 160.2 40.3 C 159.9 40.2 159.8 40 159.6 39.8 C 159.5 39.6 159.4 39.3 159.4 39 V 38.9 C 159.4 38.9 159.4 38.9 159.5 38.8 H 160.8 C 160.8 38.8 160.8 38.9 160.8 38.9 C 160.8 38.9 160.8 38.9 160.8 39 C 160.8 39.1 160.8 39.3 160.9 39.4 C 161 39.5 161.1 39.5 161.3 39.6 C 161.4 39.6 161.6 39.6 161.8 39.6 C 161.9 39.6 162 39.6 162.1 39.6 C 162.2 39.6 162.3 39.6 162.4 39.6 C 162.5 39.5 162.5 39.5 162.6 39.5 C 162.7 39.4 162.7 39.4 162.7 39.3 C 162.8 39.3 162.8 39.2 162.8 39.1 C 162.8 39 162.7 38.9 162.6 38.9 C 162.6 38.8 162.4 38.7 162.3 38.7 C 162.1 38.6 162 38.6 161.8 38.5 C 161.6 38.5 161.4 38.4 161.2 38.4 C 161 38.3 160.8 38.3 160.6 38.2 C 160.4 38.1 160.2 38 160.1 37.9 C 159.9 37.8 159.8 37.6 159.7 37.4 C 159.6 37.3 159.6 37.1 159.6 36.8 C 159.6 36.5 159.6 36.3 159.7 36.1 C 159.8 35.9 160 35.7 160.2 35.6 C 160.4 35.5 160.7 35.4 160.9 35.3 C 161.2 35.3 161.5 35.2 161.8 35.2 C 162.1 35.2 162.4 35.3 162.7 35.3 C 162.9 35.4 163.2 35.5 163.4 35.6 C 163.6 35.7 163.8 35.9 163.9 36.1 C 164 36.3 164 36.5 164.1 36.8 V 36.9 H 162.7 V 36.8 C 162.7 36.7 162.7 36.6 162.6 36.5 C 162.6 36.4 162.5 36.4 162.3 36.3 C 162.2 36.3 162 36.2 161.9 36.2 C 161.7 36.2 161.5 36.3 161.4 36.3 C 161.2 36.3 161.1 36.4 161.1 36.4 C 161 36.5 161 36.6 161 36.7 C 161 36.8 161 36.9 161.1 37 C 161.2 37 161.3 37.1 161.5 37.1 C 161.6 37.2 161.8 37.2 162 37.3 C 162.2 37.3 162.4 37.4 162.6 37.4 C 162.8 37.5 163 37.5 163.2 37.6 C 163.4 37.7 163.5 37.8 163.7 37.9 C 163.8 38 164 38.1 164.1 38.3 C 164.2 38.5 164.2 38.7 164.2 38.9 C 164.2 39.3 164.1 39.7 163.9 39.9 C 163.7 40.2 163.4 40.4 163.1 40.5 C 162.7 40.6 162.3 40.7 161.9 40.7 H 161.9 Z" fill="white"/>
<path d="M 166.2 40.6 V 35.3 H 170.7 V 36.5 H 167.8 V 37.3 H 170.4 V 38.5 H 167.8 V 39.4 H 170.8 V 40.6 H 166.2 Z" fill="white"/>
<path d="M 103.8 40.6 H 101.3 V 35.3 H 103.8 C 104.9 35.3 105.9 36.3 105.9 37.4 V 38.5 C 105.9 39.6 104.9 40.6 103.8 40.6 Z M 101.8 40.2 H 103.8 C 104.7 40.2 105.4 39.4 105.4 38.5 V 37.4 C 105.4 36.5 104.7 35.8 103.8 35.8 H 101.8 V 40.2 Z" fill="white"/>
</g>
<defs>
<clipPath id="clip0_14144_13394">
<rect width="210" height="42" fill="white"/>
</clipPath>
</defs>
</svg>
